<?xml version="1.0" encoding="UTF-8" standalone="no"?>
<svg
   width="24"
   height="24"
   viewBox="0 0 24 24"
   fill="none"
   version="1.1"
   id="svg4"
   xmlns="http://www.w3.org/2000/svg"
   xmlns:svg="http://www.w3.org/2000/svg">
  <g
     clip-path="url(#clip0_655_7185)"
     id="g4">
    <path
       d="M 3,18 V 8 C 3,5.8 4.8,4 7,4 h 10 c 2.2,0 4,1.8 4,4 v 10 c 0,2.2 -1.8,4 -4,4 H 7 C 4.8,22 3,20.2 3,18 Z"
       stroke="#ffffff"
       stroke-width="1.5"
       stroke-linecap="round"
       stroke-linejoin="round"
       id="path2" />
    <path
       d="M 15.5,6 V 2"
       stroke="#ffffff"
       stroke-width="1.5"
       stroke-linecap="round"
       stroke-linejoin="round"
       id="path3" />
    <path
       d="M 8.5,6 V 2"
       stroke="#ffffff"
       stroke-width="1.5"
       stroke-linecap="round"
       stroke-linejoin="round"
       id="path4" />
    <g
       id="g7"
       transform="translate(0,0.32505643)">
      <path
         style="fill:none;fill-opacity:1;stroke:#ffffff;stroke-width:1.349;stroke-linecap:round;stroke-linejoin:round;stroke-dasharray:none;stroke-opacity:1;paint-order:stroke fill markers"
         d="m 14.842471,13.005417 -5.6849421,-0.0063 z"
         id="path6" />
      <path
         style="fill:none;fill-opacity:1;stroke:#ffffff;stroke-width:1.349;stroke-linecap:round;stroke-linejoin:round;stroke-dasharray:none;stroke-opacity:1;paint-order:stroke fill markers"
         d="m 11.969279,15.844574 0.06144,-5.684614 z"
         id="path7" />
    </g>
    <g
       id="g9"
       transform="translate(0,0.32505643)">
      <path
         style="fill:none;fill-opacity:1;stroke:#ffffff;stroke-width:1.349;stroke-linecap:round;stroke-linejoin:round;stroke-dasharray:none;stroke-opacity:1;paint-order:stroke fill markers"
         d="m 14.842471,13.005417 -5.6849421,-0.0063 z"
         id="path8" />
      <path
         style="fill:none;fill-opacity:1;stroke:#ffffff;stroke-width:1.349;stroke-linecap:round;stroke-linejoin:round;stroke-dasharray:none;stroke-opacity:1;paint-order:stroke fill markers"
         d="m 11.969279,15.844574 0.06144,-5.684614 z"
         id="path9" />
    </g>
  </g>
  <defs
     id="defs4">
    <clipPath
       id="clip0_655_7185">
      <rect
         width="24"
         height="24"
         fill="#ffffff"
         id="rect4"
         x="0"
         y="0" />
    </clipPath>
  </defs>
</svg>
